<svg fill="white" viewBox="0 0 24 24" width="24" height="24" xmlns="http://www.w3.org/2000/svg">
  <path d="M12 2.2c3.2 0 3.584.012 4.85.07 1.17.056 1.97.24 2.43.403a4.9 4.9 0 011.774 1.153 4.9 4.9 0 011.153 1.774c.163.46.347 1.26.403 2.43.058 1.266.07 1.65.07 4.85s-.012 3.584-.07 4.85c-.056 1.17-.24 1.97-.403 2.43a4.9 4.9 0 01-1.153 1.774 4.9 4.9 0 01-1.774 1.153c-.46.163-1.26.347-2.43.403-1.266.058-1.65.07-4.85.07s-3.584-.012-4.85-.07c-1.17-.056-1.97-.24-2.43-.403a4.9 4.9 0 01-1.774-1.153 4.9 4.9 0 01-1.153-1.774c-.163-.46-.347-1.26-.403-2.43-.058-1.266-.07-1.65-.07-4.85s.012-3.584.07-4.85c.056-1.17.24-1.97.403-2.43a4.9 4.9 0 011.153-1.774 4.9 4.9 0 011.774-1.153c.46-.163 1.26-.347 2.43-.403C8.416 2.212 8.8 2.2 12 2.2zm0 1.8c-3.155 0-3.52.012-4.762.068-.98.045-1.51.206-1.86.342-.469.18-.8.396-1.15.746-.35.35-.566.681-.746 1.15-.136.35-.297.88-.342 1.86C3.412 8.48 3.4 8.845 3.4 12c0 3.155.012 3.52.068 4.762.045.98.206 1.51.342 1.86.18.469.396.8.746 1.15.35.35.681.566 1.15.746.35.136.88.297 1.86.342C8.48 20.588 8.845 20.6 12 20.6c3.155 0 3.52-.012 4.762-.068.98-.045 1.51-.206 1.86-.342.469-.18.8-.396 1.15-.746.35-.35.566-.681.746-1.15.136-.35.297-.88.342-1.86.056-1.242.068-1.607.068-4.762s-.012-3.52-.068-4.762c-.045-.98-.206-1.51-.342-1.86a3.1 3.1 0 00-.746-1.15 3.1 3.1 0 00-1.15-.746c-.35-.136-.88-.297-1.86-.342C15.52 4.012 15.155 4 12 4zm0 2.8a5.2 5.2 0 110 10.4 5.2 5.2 0 010-10.4zm0 1.8a3.4 3.4 0 100 6.8 3.4 3.4 0 000-6.8zm5.6-1.4a1.2 1.2 0 110 2.4 1.2 1.2 0 010-2.4z"/>
</svg>