<svg fill="white" viewBox="0 0 24 24" width="24" height="24" xmlns="http://www.w3.org/2000/svg">
  <path d="M10 15l5.19-3L10 9v6zm12-3c0 2.21-.015 3.928-.18 5.106-.147 1.075-.58 1.907-1.25 2.578-.67.67-1.502 1.103-2.577 1.25-1.178.165-2.895.18-5.106.18s-3.928-.015-5.106-.18c-1.075-.147-1.907-.58-2.578-1.25-.67-.67-1.103-1.502-1.25-2.577C2.015 15.928 2 14.21 2 12s.015-3.928.18-5.106c.147-1.075.58-1.907 1.25-2.578.67-.67 1.502-1.103 2.577-1.25C7.195 2.015 8.912 2 11.123 2s3.928.015 5.106.18c1.075.147 1.907.58 2.578 1.25.67.67 1.103 1.502 1.25 2.577.165 1.178.18 2.895.18 5.106z"/>
</svg>